REM DIRINDEX 1\2,1\4,1\3\5,1\3\6,1\3\7
REM DIRNAME cjc081,folder01,folder02,folder03,folder04,folder05,folder06
TITLE ""
FILE "CD1Track49.mp3" MP3
  TRACK 01 AUDIO
    TITLE "0:"
    INDEX 01 00:00:00
  TRACK 02 AUDIO
    TITLE "5:cjc081_0864"
    INDEX 01 00:00:29
  TRACK 03 AUDIO
    TITLE "0:"
    INDEX 01 00:01:38
  TRACK 04 AUDIO
    TITLE "6:cjc081_0865"
    INDEX 01 00:02:12
  TRACK 05 AUDIO
    TITLE "0:"
    INDEX 01 00:03:23
  TRACK 06 AUDIO
    TITLE "5:cjc081_0866"
    INDEX 01 00:03:66
  TRACK 07 AUDIO
    TITLE "0:"
    INDEX 01 00:05:57
  TRACK 08 AUDIO
    TITLE "6:cjc081_0867"
    INDEX 01 00:06:26
  TRACK 09 AUDIO
    TITLE "0:"
    INDEX 01 00:09:61
  TRACK 10 AUDIO
    TITLE "5:cjc081_0868"
    INDEX 01 00:10:27
  TRACK 11 AUDIO
    TITLE "0:"
    INDEX 01 00:11:52
  TRACK 12 AUDIO
    TITLE "6:cjc081_0869"
    INDEX 01 00:12:26
  TRACK 13 AUDIO
    TITLE "0:"
    INDEX 01 00:14:74
  TRACK 14 AUDIO
    TITLE "5:cjc081_0870"
    INDEX 01 00:15:42
  TRACK 15 AUDIO
    TITLE "0:"
    INDEX 01 00:16:65
  TRACK 16 AUDIO
    TITLE "6:cjc081_0871"
    INDEX 01 00:17:39
  TRACK 17 AUDIO
    TITLE "0:"
    INDEX 01 00:19:63
  TRACK 18 AUDIO
    TITLE "5:cjc081_0872"
    INDEX 01 00:20:34
  TRACK 19 AUDIO
    TITLE "0:"
    INDEX 01 00:21:39
  TRACK 20 AUDIO
    TITLE "6:cjc081_0873"
    INDEX 01 00:22:11
  TRACK 21 AUDIO
    TITLE "0:"
    INDEX 01 00:23:32
  TRACK 22 AUDIO
    TITLE "5:cjc081_0874"
    INDEX 01 00:24:02
  TRACK 23 AUDIO
    TITLE "0:"
    INDEX 01 00:25:23
  TRACK 24 AUDIO
    TITLE "6:cjc081_0875"
    INDEX 01 00:25:70
  TRACK 25 AUDIO
    TITLE "0:"
    INDEX 01 00:27:24
  TRACK 26 AUDIO
    TITLE "5:cjc081_0876"
    INDEX 01 00:27:71
  TRACK 27 AUDIO
    TITLE "0:"
    INDEX 01 00:29:13
  TRACK 28 AUDIO
    TITLE "6:cjc081_0877"
    INDEX 01 00:29:60
  TRACK 29 AUDIO
    TITLE "0:"
    INDEX 01 00:33:05
  TRACK 30 AUDIO
    TITLE "5:cjc081_0878"
    INDEX 01 00:33:48
  TRACK 31 AUDIO
    TITLE "0:"
    INDEX 01 00:34:59
  TRACK 32 AUDIO
    TITLE "6:cjc081_0879"
    INDEX 01 00:35:33
  TRACK 33 AUDIO
    TITLE "0:"
    INDEX 01 00:38:37
  TRACK 34 AUDIO
    TITLE "5:cjc081_0880"
    INDEX 01 00:39:03
  TRACK 35 AUDIO
    TITLE "0:"
    INDEX 01 00:40:46
  TRACK 36 AUDIO
    TITLE "6:cjc081_0881"
    INDEX 01 00:41:16
  TRACK 37 AUDIO
    TITLE "0:"
    INDEX 01 00:43:46
  TRACK 38 AUDIO
    TITLE "5:cjc081_0882"
    INDEX 01 00:44:14
  TRACK 39 AUDIO
    TITLE "0:"
    INDEX 01 00:45:59
  TRACK 40 AUDIO
    TITLE "6:cjc081_0883"
    INDEX 01 00:46:29
  TRACK 41 AUDIO
    TITLE "0:"
    INDEX 01 00:48:00
  TRACK 42 AUDIO
    TITLE "5:cjc081_0884"
    INDEX 01 00:48:42
  TRACK 43 AUDIO
    TITLE "0:"
    INDEX 01 00:49:69
  TRACK 44 AUDIO
    TITLE "6:cjc081_0885"
    INDEX 01 00:50:35
  TRACK 45 AUDIO
    TITLE "0:"
    INDEX 01 00:53:60
  TRACK 46 AUDIO
    TITLE "5:cjc081_0886"
    INDEX 01 00:54:29
  TRACK 47 AUDIO
    TITLE "0:"
    INDEX 01 00:55:38
  TRACK 48 AUDIO
    TITLE "6:cjc081_0887"
    INDEX 01 00:56:16
  TRACK 49 AUDIO
    TITLE "0:"
    INDEX 01 00:59:08
  TRACK 50 AUDIO
    TITLE "5:cjc081_0888"
    INDEX 01 00:59:49
  TRACK 51 AUDIO
    TITLE "0:"
    INDEX 01 01:01:25
  TRACK 52 AUDIO
    TITLE "6:cjc081_0889"
    INDEX 01 01:02:01
  TRACK 53 AUDIO
    TITLE "0:"
    INDEX 01 01:04:03
  TRACK 54 AUDIO
    TITLE "5:cjc081_0890"
    INDEX 01 01:04:45
  TRACK 55 AUDIO
    TITLE "0:"
    INDEX 01 01:06:24
  TRACK 56 AUDIO
    TITLE "6:cjc081_0891"
    INDEX 01 01:06:67
  TRACK 57 AUDIO
    TITLE "0:"
    INDEX 01 01:08:68
  TRACK 58 AUDIO
    TITLE "5:cjc081_0892"
    INDEX 01 01:09:38
  TRACK 59 AUDIO
    TITLE "0:"
    INDEX 01 01:10:51
  TRACK 60 AUDIO
    TITLE "6:cjc081_0893"
    INDEX 01 01:11:23
  TRACK 61 AUDIO
    TITLE "0:"
    INDEX 01 01:12:42
  TRACK 62 AUDIO
    TITLE "7:cjc081_0894"
    INDEX 01 01:14:10
  TRACK 63 AUDIO
    TITLE "0:"
    INDEX 01 01:25:51
